<!-- Generator: Adobe Illustrator 22.0.1, SVG Export Plug-In . SVG Version: 6.00 Build 0)  -->
<svg version="1.1" id="Layer_1" xmlns="http://www.w3.org/2000/svg" xmlns:xlink="http://www.w3.org/1999/xlink" x="0px" y="0px"
	 viewBox="0 0 700 700" style="enable-background:new 0 0 700 700;" xml:space="preserve">
<style type="text/css">
	.st0{fill:none;stroke:#97BF00;stroke-miterlimit:10;}
	.st1{opacity:0.83;}
	.st2{fill-rule:evenodd;clip-rule:evenodd;fill:#FF0000;stroke:#97BF00;stroke-miterlimit:10;}
	.st3{fill:none;stroke:#3FA9F5;stroke-width:5;stroke-miterlimit:10;}
	.st4{fill:none;}
	.st5{stroke:#3FA9F5;stroke-miterlimit:10;}
	.st6{font-family:'MyriadPro-Regular';}
	.st7{font-size:33.672px;}
	.st8{font-size:12px;}
	.st9{font-size:24px;}
</style>
<g>
	<line class="st0" x1="98.5" y1="0.5" x2="98.5" y2="1024.5"/>
</g>
<g>
	<line class="st0" x1="99.5" y1="0.5" x2="99.5" y2="1024.5"/>
</g>
<g>
	<line class="st0" x1="199.5" y1="0.5" x2="199.5" y2="1024.5"/>
</g>
<g>
	<line class="st0" x1="298.5" y1="0.5" x2="298.5" y2="1024.5"/>
</g>
<g>
	<line class="st0" x1="397.5" y1="0.5" x2="397.5" y2="1024.5"/>
</g>
<g>
	<line class="st0" x1="496.5" y1="0.5" x2="496.5" y2="1024.5"/>
</g>
<g>
	<line class="st0" x1="595.5" y1="0.5" x2="595.5" y2="1024.5"/>
</g>
<g>
	<line class="st0" x1="699.5" y1="0.5" x2="699.5" y2="1024.5"/>
</g>
<g>
	<line class="st0" x1="796.5" y1="0.5" x2="796.5" y2="1024.5"/>
</g>
<g>
	<line class="st0" x1="898.5" y1="0.5" x2="898.5" y2="1024.5"/>
</g>
<g>
	<line class="st0" x1="998.5" y1="0.5" x2="998.5" y2="1024.5"/>
</g>
<g>
	<line class="st0" x1="1097.5" y1="0.5" x2="1097.5" y2="1024.5"/>
</g>
<g>
	<line class="st0" x1="1196.5" y1="0.5" x2="1196.5" y2="1024.5"/>
</g>
<g>
	<line class="st0" x1="1297.5" y1="0.5" x2="1297.5" y2="1024.5"/>
</g>
<g class="st1">
	<line class="st0" x1="-6" y1="1125.5" x2="1304" y2="1125.5"/>
</g>
<g class="st1">
	<line class="st0" x1="-6" y1="1124.5" x2="1304" y2="1124.5"/>
</g>
<g class="st1">
	<line class="st0" x1="-6" y1="1024.4" x2="1304" y2="1024.4"/>
</g>
<g class="st1">
	<line class="st0" x1="-6" y1="925.3" x2="1304" y2="925.3"/>
</g>
<g class="st1">
	<line class="st0" x1="-6" y1="826.3" x2="1304" y2="826.3"/>
</g>
<g class="st1">
	<line class="st0" x1="-6" y1="727.2" x2="1304" y2="727.2"/>
</g>
<g class="st1">
	<line class="st0" x1="-6" y1="628.1" x2="1304" y2="628.1"/>
</g>
<g class="st1">
	<line class="st0" x1="-6" y1="524" x2="1304" y2="524"/>
</g>
<g class="st1">
	<line class="st0" x1="-6" y1="426.9" x2="1304" y2="426.9"/>
</g>
<g class="st1">
	<line class="st0" x1="-6" y1="324.8" x2="1304" y2="324.8"/>
</g>
<g class="st1">
	<line class="st0" x1="-6" y1="224.7" x2="1304" y2="224.7"/>
</g>
<g class="st1">
	<line class="st0" x1="-6" y1="125.7" x2="1304" y2="125.7"/>
</g>
<g class="st1">
	<line class="st0" x1="-6" y1="26.6" x2="1304" y2="26.6"/>
</g>
<g class="st1">
	<line class="st0" x1="-6" y1="-74.5" x2="1304" y2="-74.5"/>
</g>
<circle class="st2" cx="200.5" cy="825.5" r="8"/>
<circle class="st2" cx="397.5" cy="869.5" r="8"/>
<circle class="st2" cx="595.5" cy="628.5" r="8"/>
<circle class="st2" cx="796.5" cy="727.5" r="8"/>
<circle class="st2" cx="998.5" cy="426.5" r="8"/>
<circle class="st2" cx="999.5" cy="426.5" r="8"/>
<circle class="st2" cx="1196.5" cy="515.5" r="8"/>
<line class="st3" x1="-5.5" y1="1024.5" x2="200.5" y2="825.5"/>
<line class="st3" x1="397.5" y1="869.5" x2="192.5" y2="825.5"/>
<line class="st3" x1="595.5" y1="628.5" x2="397.5" y2="869.5"/>
<line class="st3" x1="796.5" y1="727.5" x2="595.5" y2="628.5"/>
<line class="st3" x1="998.5" y1="426.5" x2="796.5" y2="727.5"/>
<line class="st3" x1="1196.5" y1="515.5" x2="998.5" y2="426.5"/>
<line class="st3" x1="1279.5" y1="224.5" x2="1196.5" y2="515.5"/>
<rect x="162.7" y="770.7" class="st4" width="96.3" height="69"/>
<text transform="matrix(0.6324 0 0 1 162.6558 794.6533)" class="st5 st6 st7">About Us</text>
<text transform="matrix(1 0 0 1 234.7871 812.623)" class="st6 st8">Lorem ipsum</text>
<rect x="549.5" y="584.8" class="st4" width="131.1" height="43.3"/>
<text transform="matrix(0.6324 0 0 1 549.541 608.6611)" class="st5 st6 st7">About Us</text>
<rect x="951.8" y="389.6" class="st4" width="129.5" height="57.4"/>
<text transform="matrix(0.6324 0 0 1 951.8193 413.5132)" class="st5 st6 st7">About Us</text>
<text transform="matrix(1 0 0 1 1046.2627 594.5898)" class="st6 st9">`</text>
</svg>
